<?xml version="1.0" encoding="utf-8"?>
<!-- Generator: Adobe Illustrator 17.0.0, SVG Export Plug-In . SVG Version: 6.00 Build 0)  -->
<!DOCTYPE svg PUBLIC "-//W3C//DTD SVG 1.1//EN" "http://www.w3.org/Graphics/SVG/1.1/DTD/svg11.dtd">
<svg version="1.1" id="Capa_1" xmlns="http://www.w3.org/2000/svg" xmlns:xlink="http://www.w3.org/1999/xlink" x="0px" y="0px"
	 width="41.859px" height="42px" viewBox="0 0 41.859 42" enable-background="new 0 0 41.859 42" xml:space="preserve">
<g>
	<g>
		<g>
			<path fill="#FFFFFF" d="M41.859-78.263v0.29h-5.738v-1.515c-0.516,0.645-1.258,1.182-2.225,1.612
				c-0.538,0.258-1.225,0.387-2.064,0.387c-1.805,0-3.218-0.355-4.239-1.064c-1.021-0.709-1.531-1.698-1.531-2.966
				c0-0.623,0.214-1.23,0.644-1.821c0.43-0.591,1.053-1.123,1.87-1.596c0.881-0.516,1.988-0.908,3.321-1.177
				c1.332-0.268,2.74-0.403,4.223-0.403v-1.934c0-1.44-0.189-2.472-0.564-3.095c-0.377-0.623-1.102-0.934-2.176-0.934
				c-0.774,0-1.392,0.177-1.854,0.532c-0.463,0.355-0.693,0.876-0.693,1.563c0,0.344,0.118,0.683,0.355,1.016
				c0.236,0.333,0.548,0.543,0.935,0.628c0,0.409-0.21,0.785-0.628,1.129c-0.419,0.344-0.898,0.516-1.435,0.516
				c-0.903,0-1.569-0.268-1.999-0.806c-0.431-0.537-0.645-1.149-0.645-1.837c0-0.709,0.29-1.332,0.871-1.87
				c0.58-0.537,1.332-0.951,2.257-1.241c0.924-0.29,1.869-0.435,2.837-0.435c1.891,0,3.39,0.441,4.497,1.322
				c1.107,0.882,1.66,2.053,1.66,3.514v8.317c0,0.409,0.124,0.769,0.371,1.08c0.247,0.312,0.574,0.511,0.983,0.596L41.859-78.263z
				 M36.121-85.517c-1.849,0-3.256,0.361-4.223,1.08c-0.967,0.721-1.451,1.779-1.451,3.176c0,0.795,0.226,1.457,0.677,1.983
				c0.451,0.527,1,0.79,1.644,0.79c0.473,0,0.898-0.113,1.274-0.339s0.779-0.553,1.209-0.984c0.387-0.387,0.677-0.827,0.871-1.322
				V-85.517z"/>
			<path fill="#FFFFFF" d="M57.599-85.388c0,2.386-0.741,4.32-2.225,5.803c-0.666,0.666-1.44,1.183-2.321,1.547
				c-0.882,0.365-1.806,0.548-2.773,0.548c-0.795,0-1.542-0.118-2.241-0.355c-0.699-0.236-1.252-0.558-1.66-0.967v6.415
				c0,0.408,0.124,0.768,0.371,1.08c0.247,0.311,0.575,0.51,0.984,0.596l0.967,0.194v0.29h-8.059v-0.29l0.967-0.194
				c0.408-0.086,0.736-0.285,0.983-0.596c0.247-0.312,0.371-0.672,0.371-1.08v-18.247c0-0.408-0.124-0.768-0.371-1.08
				c-0.247-0.311-0.575-0.51-0.983-0.596l-0.967-0.194v-0.29h5.738v1.515c0.494-0.602,1.123-1.085,1.886-1.451
				c0.763-0.365,1.563-0.548,2.402-0.548c0.882,0,1.741,0.183,2.579,0.548c0.838,0.366,1.569,0.871,2.192,1.515
				C56.879-89.611,57.599-87.666,57.599-85.388z M52.296-80.681c0.612-1.268,0.919-2.837,0.919-4.707c0-1.783-0.29-3.331-0.87-4.642
				c-0.58-1.31-1.418-1.966-2.515-1.966c-0.688,0-1.343,0.263-1.966,0.789c-0.624,0.527-1.096,1.145-1.418,1.854v8.801
				c0.343,0.56,0.795,0.994,1.354,1.306c0.559,0.312,1.117,0.467,1.676,0.467C50.743-78.779,51.683-79.413,52.296-80.681z"/>
			<path fill="#FFFFFF" d="M74.142-78.263v0.29h-5.739v-1.515c-0.516,0.645-1.257,1.182-2.225,1.612
				c-0.537,0.258-1.225,0.387-2.063,0.387c-1.805,0-3.219-0.355-4.239-1.064c-1.021-0.709-1.531-1.698-1.531-2.966
				c0-0.623,0.215-1.23,0.645-1.821c0.429-0.591,1.053-1.123,1.87-1.596c0.881-0.516,1.988-0.908,3.321-1.177
				c1.332-0.268,2.74-0.403,4.223-0.403v-1.934c0-1.44-0.188-2.472-0.564-3.095c-0.376-0.623-1.101-0.934-2.176-0.934
				c-0.773,0-1.392,0.177-1.854,0.532s-0.693,0.876-0.693,1.563c0,0.344,0.118,0.683,0.355,1.016
				c0.236,0.333,0.548,0.543,0.934,0.628c0,0.409-0.209,0.785-0.628,1.129c-0.419,0.344-0.898,0.516-1.435,0.516
				c-0.903,0-1.569-0.268-1.999-0.806c-0.43-0.537-0.644-1.149-0.644-1.837c0-0.709,0.29-1.332,0.87-1.87
				c0.58-0.537,1.332-0.951,2.257-1.241c0.924-0.29,1.87-0.435,2.837-0.435c1.891,0,3.39,0.441,4.497,1.322
				c1.107,0.882,1.66,2.053,1.66,3.514v8.317c0,0.409,0.124,0.769,0.371,1.08c0.247,0.312,0.575,0.511,0.983,0.596L74.142-78.263z
				 M68.403-85.517c-1.849,0-3.256,0.361-4.223,1.08c-0.968,0.721-1.451,1.779-1.451,3.176c0,0.795,0.226,1.457,0.677,1.983
				c0.451,0.527,0.999,0.79,1.644,0.79c0.472,0,0.897-0.113,1.274-0.339c0.375-0.226,0.779-0.553,1.209-0.984
				c0.387-0.387,0.677-0.827,0.87-1.322V-85.517z"/>
			<path fill="#FFFFFF" d="M91.549-78.263v0.29h-8.253v-0.29c0.301-0.065,0.532-0.22,0.693-0.467
				c0.161-0.247,0.242-0.543,0.242-0.887c0-0.58-0.205-1.149-0.612-1.708l-2.966-4.191l-0.903,0.742v4.674
				c0,0.409,0.124,0.757,0.371,1.048c0.247,0.29,0.564,0.489,0.951,0.596l0.806,0.194v0.29h-7.866v-0.29l0.967-0.194
				c0.408-0.086,0.736-0.285,0.983-0.596c0.247-0.311,0.371-0.671,0.371-1.08V-98.38c0-0.408-0.124-0.768-0.371-1.08
				c-0.247-0.311-0.575-0.51-0.983-0.596l-0.967-0.194v-0.29h5.738v14.765l2.772-2.321c0.774-0.688,1.381-1.402,1.822-2.144
				c0.44-0.742,0.661-1.392,0.661-1.951c0-0.387-0.113-0.698-0.339-0.935c-0.225-0.236-0.554-0.355-0.983-0.355
				c0.086-0.451,0.333-0.854,0.741-1.209c0.408-0.355,0.935-0.532,1.58-0.532c0.645,0,1.155,0.189,1.531,0.564
				c0.375,0.377,0.564,0.919,0.564,1.628c0,0.624-0.344,1.295-1.031,2.015c-0.688,0.721-1.72,1.639-3.095,2.756
				c0.064-0.043-0.269,0.226-1,0.806l5.029,6.996c0.795,1.118,1.88,1.827,3.256,2.128L91.549-78.263z"/>
			<path fill="#FFFFFF" d="M106.987-78.263v0.29h-5.738v-1.515c-0.516,0.645-1.258,1.182-2.225,1.612
				c-0.538,0.258-1.225,0.387-2.064,0.387c-1.805,0-3.218-0.355-4.239-1.064c-1.021-0.709-1.531-1.698-1.531-2.966
				c0-0.623,0.214-1.23,0.645-1.821c0.43-0.591,1.053-1.123,1.87-1.596c0.881-0.516,1.988-0.908,3.321-1.177
				c1.332-0.268,2.74-0.403,4.223-0.403v-1.934c0-1.44-0.189-2.472-0.564-3.095c-0.377-0.623-1.102-0.934-2.176-0.934
				c-0.774,0-1.392,0.177-1.854,0.532c-0.463,0.355-0.693,0.876-0.693,1.563c0,0.344,0.118,0.683,0.355,1.016
				c0.236,0.333,0.548,0.543,0.935,0.628c0,0.409-0.21,0.785-0.628,1.129c-0.419,0.344-0.898,0.516-1.435,0.516
				c-0.903,0-1.569-0.268-1.999-0.806c-0.431-0.537-0.645-1.149-0.645-1.837c0-0.709,0.29-1.332,0.871-1.87
				c0.58-0.537,1.332-0.951,2.257-1.241c0.924-0.29,1.869-0.435,2.837-0.435c1.891,0,3.39,0.441,4.497,1.322
				c1.107,0.882,1.66,2.053,1.66,3.514v8.317c0,0.409,0.124,0.769,0.371,1.08c0.247,0.312,0.574,0.511,0.983,0.596L106.987-78.263z
				 M101.249-85.517c-1.849,0-3.256,0.361-4.223,1.08c-0.967,0.721-1.451,1.779-1.451,3.176c0,0.795,0.226,1.457,0.677,1.983
				c0.451,0.527,1,0.79,1.644,0.79c0.473,0,0.898-0.113,1.274-0.339s0.779-0.553,1.209-0.984c0.387-0.387,0.677-0.827,0.871-1.322
				V-85.517z"/>
		</g>
	</g>
	<g>
		<g>
			<path fill="#FFFFFF" d="M10.217-100.034c-0.45-0.152-1.431-0.418-1.431-0.418l-0.007-0.182h6.675l6.524,14.379
				c0-2.54-0.112-1.615-0.079-3.495c0.034-1.88,0.072-3.447,0.184-4.917c0.111-1.47,0.282-2.793,0.394-3.773
				c0.112-0.979,0.316-1.876,0.561-2.566c0.245-0.69,0.462-1.232,0.718-1.521c0.28-0.314,0.563-0.577,0.976-0.777
				c0.412-0.2,0.791-0.316,1.137-0.36c0.476-0.06,0.819-0.06,1.421-0.06c0.691,0,1.288,0.21,1.789,0.63
				c0.502,0.42,0.753,0.92,0.753,1.5c0,1.44-0.747,2.16-2.24,2.16c-0.535,0-0.997-0.12-1.388-0.36c-0.39-0.24-0.585-0.56-0.585-0.96
				c0-0.56,0.234-0.99,0.702-1.29c-0.066-0.16-0.245-0.24-0.535-0.24c-0.535,0-0.958,0.27-1.27,0.81
				c-0.312,0.54-0.58,1.68-0.803,3.42c-0.223,1.74-0.373,4.17-0.451,7.29c-0.078,3.12-0.117,7.331-0.117,12.63h-1.839l-8.863-19.368
				c0.117,3.975-0.026,5.381-0.182,8.061c-0.156,2.68-0.315,4.977-0.571,6.957c-0.257,1.98-0.489,3.519-0.768,4.619
				c-0.169,0.664-0.398,1.318-0.684,1.943c-0.245,0.536-0.526,1.084-1.015,1.451c-0.881,0.661-2.172,0.883-3.264,0.814
				c-0.489-0.031-0.996-0.117-1.433-0.341c-0.175-0.09-0.339-0.202-0.489-0.328c-0.502-0.42-0.753-0.92-0.753-1.5
				c0-1.44,0.747-2.16,2.24-2.16c0.535,0,0.997,0.12,1.388,0.36c0.39,0.24,0.585,0.56,0.585,0.96c0,0.56-0.234,0.99-0.703,1.29
				c0.067,0.16,0.245,0.24,0.535,0.24c0.735,0,1.332-0.58,1.789-1.74c0.457-1.16,0.852-3.565,1.187-7.215
				c0.325-3.552,0.69-7.193,0.69-13.521c0-0.631,0.118-1.51-0.095-1.907C10.736-99.823,10.545-99.924,10.217-100.034z"/>
		</g>
	</g>
</g>
<g>
	<path fill="#FFFFFF" d="M59.494-66.245c-0.496,0.218-1.053,0.327-1.671,0.327c-0.576,0-1.092-0.097-1.546-0.291
		c-0.455-0.194-0.844-0.462-1.167-0.802s-0.569-0.739-0.739-1.197c-0.17-0.458-0.255-0.948-0.255-1.469
		c0-0.499,0.088-0.979,0.266-1.437c0.177-0.458,0.425-0.86,0.744-1.208c0.319-0.347,0.703-0.623,1.151-0.827
		c0.447-0.205,0.945-0.308,1.494-0.308c0.306,0,0.585,0.021,0.838,0.063c0.253,0.042,0.489,0.104,0.708,0.188
		s0.423,0.186,0.614,0.308c0.191,0.121,0.376,0.258,0.557,0.411l-0.531,0.624c-0.139-0.125-0.285-0.237-0.437-0.338
		c-0.153-0.101-0.318-0.188-0.495-0.261c-0.177-0.072-0.372-0.13-0.583-0.172c-0.212-0.041-0.446-0.062-0.703-0.062
		c-0.402,0-0.774,0.079-1.114,0.239c-0.34,0.16-0.632,0.376-0.875,0.646c-0.243,0.271-0.434,0.59-0.573,0.955
		c-0.139,0.364-0.208,0.752-0.208,1.162c0,0.438,0.068,0.844,0.203,1.216s0.328,0.693,0.578,0.964
		c0.25,0.271,0.552,0.483,0.906,0.637s0.753,0.229,1.197,0.229c0.417,0,0.809-0.071,1.176-0.215
		c0.368-0.143,0.677-0.315,0.927-0.517v-1.819H57.74v-0.729h3.009v2.897C60.409-66.725,59.991-66.463,59.494-66.245z"/>
	<path fill="#FFFFFF" d="M67.985-66.043l-2.114-2.832h-2.082v2.832h-0.822v-7.288H66.1c0.402,0,0.766,0.053,1.088,0.156
		c0.323,0.104,0.599,0.252,0.828,0.443c0.229,0.19,0.405,0.42,0.53,0.688c0.125,0.267,0.188,0.563,0.188,0.891
		c0,0.305-0.049,0.578-0.146,0.817c-0.098,0.239-0.234,0.448-0.411,0.625s-0.387,0.324-0.63,0.442s-0.507,0.202-0.791,0.25
		l2.238,2.976H67.985z M67.421-72.19c-0.327-0.254-0.787-0.382-1.378-0.382h-2.255v2.968h2.244c0.271,0,0.521-0.035,0.752-0.104
		c0.229-0.069,0.428-0.169,0.595-0.298s0.297-0.287,0.392-0.476c0.094-0.188,0.141-0.4,0.141-0.637
		C67.912-71.578,67.747-71.936,67.421-72.19z"/>
	<path fill="#FFFFFF" d="M77.647-66.043h-0.886l-0.854-1.926h-3.967l-0.864,1.926h-0.843l3.321-7.34h0.771L77.647-66.043z
		 M73.929-72.415l-1.665,3.718h3.321L73.929-72.415z M73.627-73.977l0.989-1.51l0.833,0.386l-1.177,1.124H73.627z"/>
	<path fill="#FFFFFF" d="M84.685-72.572H80.27v2.604h3.946v0.749H80.27v3.176h-0.822v-7.288h5.237V-72.572z"/>
	<path fill="#FFFFFF" d="M87.537-73.331v7.288h-0.823v-7.288H87.537z"/>
	<path fill="#FFFFFF" d="M95.695-66.673c-0.204,0.156-0.425,0.29-0.661,0.401c-0.235,0.11-0.489,0.197-0.76,0.26
		s-0.572,0.094-0.906,0.094c-0.527,0-1.013-0.097-1.457-0.291s-0.83-0.46-1.156-0.797s-0.581-0.734-0.765-1.192
		c-0.185-0.458-0.276-0.95-0.276-1.479c0-0.521,0.092-1.01,0.276-1.468c0.184-0.458,0.438-0.858,0.765-1.202
		s0.715-0.614,1.166-0.813s0.944-0.297,1.479-0.297c0.334,0,0.634,0.028,0.901,0.084c0.267,0.055,0.515,0.133,0.744,0.233
		c0.229,0.102,0.44,0.223,0.635,0.365c0.194,0.142,0.382,0.3,0.563,0.474l-0.563,0.604c-0.313-0.292-0.647-0.531-1.005-0.719
		s-0.785-0.28-1.285-0.28c-0.403,0-0.776,0.076-1.119,0.229c-0.344,0.152-0.643,0.364-0.896,0.635
		c-0.254,0.271-0.451,0.589-0.594,0.953s-0.214,0.759-0.214,1.182c0,0.424,0.071,0.819,0.214,1.187
		c0.143,0.368,0.34,0.688,0.594,0.958c0.253,0.271,0.552,0.484,0.896,0.641c0.343,0.156,0.716,0.234,1.119,0.234
		c0.5,0,0.93-0.092,1.291-0.276c0.36-0.184,0.715-0.442,1.062-0.775l0.542,0.531C96.096-67.004,95.9-66.829,95.695-66.673z"/>
	<path fill="#FFFFFF" d="M104.872-66.043h-0.885l-0.854-1.926h-3.967l-0.864,1.926h-0.844l3.321-7.34h0.771L104.872-66.043z
		 M101.156-72.415l-1.666,3.718h3.321L101.156-72.415z"/>
</g>
<g>
	<path fill="#FFFFFF" d="M37.311,21.966c-0.177,8.799-7.475,15.875-16.396,15.654c-8.743-0.216-15.773-7.475-15.58-16.348
		C5.524,12.54,12.781,5.411,21.762,5.65C30.471,5.881,37.487,13.092,37.311,21.966z M21.301,31.969c1.503,0,3.006,0.011,4.509-0.002
		c3.243-0.028,5.836-2.629,5.848-5.872c0.011-2.965,0.011-5.93-0.001-8.895c-0.013-3.3-2.618-5.894-5.912-5.9
		c-2.965-0.005-5.93-0.006-8.895,0c-3.226,0.006-5.852,2.628-5.861,5.859c-0.009,2.985-0.009,5.971,0,8.956
		c0.01,3.218,2.614,5.828,5.835,5.853C18.316,31.978,19.809,31.969,21.301,31.969z"/>
	<path fill="#FFFFFF" d="M21.299,30.195c-1.462,0-2.924,0.006-4.385-0.002c-2.357-0.013-4.148-1.81-4.152-4.168
		c-0.005-2.913-0.005-5.827,0-8.74c0.004-2.434,1.802-4.217,4.23-4.214c2.893,0.003,5.786,0.002,8.679,0.001
		c2.408-0.001,4.211,1.793,4.214,4.201c0.003,2.924,0.003,5.847-0.001,8.771c-0.003,2.332-1.811,4.144-4.139,4.151
		C24.263,30.199,22.781,30.196,21.299,30.195z M21.336,26.931c2.883-0.001,5.291-2.403,5.284-5.272
		c-0.007-2.954-2.381-5.326-5.326-5.321c-2.898,0.005-5.271,2.4-5.267,5.317C16.032,24.556,18.423,26.932,21.336,26.931z
		 M28.111,16.026c-0.003-0.7-0.569-1.258-1.273-1.256c-0.716,0.002-1.27,0.572-1.261,1.298c0.008,0.686,0.568,1.24,1.256,1.242
		C27.55,17.312,28.114,16.746,28.111,16.026z"/>
	<path fill="#FFFFFF" d="M21.339,18.112c1.924,0.006,3.507,1.596,3.508,3.523c0.001,1.925-1.604,3.536-3.509,3.521
		c-1.967-0.015-3.539-1.581-3.536-3.523C17.804,19.687,19.392,18.106,21.339,18.112z"/>
</g>
</svg>
