<?xml version="1.0" encoding="utf-8"?>
<!-- Generator: Adobe Illustrator 17.0.0, SVG Export Plug-In . SVG Version: 6.00 Build 0)  -->
<!DOCTYPE svg PUBLIC "-//W3C//DTD SVG 1.1//EN" "http://www.w3.org/Graphics/SVG/1.1/DTD/svg11.dtd">
<svg version="1.1" id="Capa_1" xmlns="http://www.w3.org/2000/svg" xmlns:xlink="http://www.w3.org/1999/xlink" x="0px" y="0px"
	 width="32px" height="32.003px" viewBox="0 0 32 32.003" enable-background="new 0 0 32 32.003" xml:space="preserve">
<g>
	<path fill="#FFFFFF" d="M16.038,1.307c-8.341,0-15.102,6.762-15.102,15.102s6.762,15.102,15.102,15.102s15.102-6.762,15.102-15.102
		S24.379,1.307,16.038,1.307z M25.444,16.412c-0.191,5.359-5.046,9.523-10.371,8.902c-1.092-0.127-2.139-0.406-3.116-0.91
		c-0.277-0.143-0.52-0.141-0.803-0.065c-1.478,0.397-2.959,0.781-4.528,1.193c0.334-1.22,0.604-2.371,0.971-3.49
		c0.281-0.856,0.229-1.579-0.143-2.438C5.032,14.013,8.726,7.555,14.76,6.731C20.603,5.934,25.654,10.511,25.444,16.412z"/>
	<path fill="#FFFFFF" d="M14.674,8.361C9.205,9.456,6.608,15.41,9.51,20.181c0.09,0.147,0.119,0.381,0.078,0.55
		c-0.204,0.831-0.441,1.653-0.688,2.556c0.893-0.234,1.7-0.434,2.5-0.662c0.293-0.084,0.527-0.058,0.794,0.1
		c1.021,0.607,2.134,0.957,3.32,1.027c5.149,0.304,9.069-4.067,8.219-9.152C23.04,10.453,18.802,7.534,14.674,8.361z M19.508,20.369
		c-0.196,0.043-0.398,0.056-0.657,0.091c-1.352-0.201-2.659-0.656-3.811-1.499c-1.223-0.896-2.164-2.052-2.921-3.352
		c-0.586-1.005-0.781-2.066-0.161-3.139c0.323-0.56,0.741-0.989,1.486-0.879c0.285,0.042,0.477,0.153,0.586,0.414
		c0.243,0.582,0.483,1.166,0.731,1.746c0.142,0.332-0.048,0.572-0.225,0.806c-0.579,0.769-0.58,0.764-0.011,1.538
		c0.703,0.956,1.611,1.641,2.703,2.1c0.272,0.114,0.457,0.072,0.63-0.153c0.204-0.267,0.427-0.519,0.627-0.789
		c0.158-0.212,0.342-0.235,0.565-0.129c0.618,0.295,1.244,0.574,1.847,0.897c0.124,0.067,0.229,0.297,0.228,0.451
		C21.118,19.405,20.463,20.16,19.508,20.369z"/>
</g>
</svg>
